# xmcd
#
# Track frame offsets:
#	150
#	18393
#	31484
#	47460
#	63792
#	79212
#	96761
#	110337
#	129442
#	141733
#	157555
#	174153
#	193838
#	214680
#	230590
#	244634
#	261955
#	279504
#	293833
#	311240
#	328127
#
# Disc length: 4575 seconds
#
# Revision: 0
# Processed by: cddbd v1.5.2PL0 Copyright (c) Steve Scherf et al.
# Submitted via: dBpowerAMP V4.0
#
DISCID=2a11dd15
DTITLE=Various Artist - ERG Nu Country Traxx Vol. 471 CAN
DYEAR=2013
DGENRE=Country
TTITLE0=Carrie Underwood - Two Black Cadillacs
TTITLE1=Miranda Lambert  - Mama's Broken Heart
TTITLE2=Leann Rimes  - Borrowed
TTITLE3=Florida Georgia Line - Get Your Shine On
TTITLE4=Kira Isabella - Songs About You
TTITLE5=Lee Brice - I Drive Your Truck
TTITLE6=Big and Rich - Party Like Cowboyz
TTITLE7=Aaron Lewis - Forever
TTITLE8=Easton Corbin - All Over The Road
TTITLE9=Jerrod Niemann - Only God Could Love You More
TTITLE10=Rascal Flatts - Changed
TTITLE11=Wyatt - Jesse James
TTITLE12=Mumford and Sons  - I Will Wait
TTITLE13=Kix Brooks - Moonshine Road
TTITLE14=Henningsens, The - American Beautiful
TTITLE15=Crystal Shawanda - Chains
TTITLE16=Alan Doyle ft. Colin James - Testify
TTITLE17=Bobby Wills - Somebody Will
TTITLE18=Train ft. Ashley Monroe - Bruises
TTITLE19=Autumn Hill - Anything At All
TTITLE20=Sarah Darling - Home To Me
EXTD=
EXTT0=
EXTT1=
EXTT2=
EXTT3=
EXTT4=
EXTT5=
EXTT6=
EXTT7=
EXTT8=
EXTT9=
EXTT10=
EXTT11=
EXTT12=
EXTT13=
EXTT14=
EXTT15=
EXTT16=
EXTT17=
EXTT18=
EXTT19=
EXTT20=
PLAYORDER=
